<svg xmlns="http://www.w3.org/2000/svg" viewBox="0 0 75 50"><g fill="none" fill-rule="evenodd"><path fill="#FF6D00" fill-rule="nonzero" d="M35.542 10.84L24.734 1.807 1.204 25.01l12.058 12.34z"/><path fill="#E6E6E6" fill-rule="nonzero" d="M28.945 6.81l-1.538-1.535c-1.524-1.527-3.359-1.554-5.07.159l-1.218 1.22c-1.713 1.711-1.685 3.543-.161 5.07l1.538 1.533c1.524 1.53 3.359 1.557 5.07-.154l1.218-1.221c1.713-1.712 1.686-3.545.16-5.072zm-7.705 7.704l-1.54-1.533c-1.524-1.526-3.357-1.555-5.067.159l-1.22 1.22c-1.712 1.71-1.686 3.541-.16 5.07l4.932 4.93c.57.567 1.211.483 1.649.046.438-.438.512-1.068-.056-1.638l-1.135-1.132c.308-.065.688-.3 1.135-.747l1.301-1.304c1.715-1.71 1.685-3.542.161-5.07zm-6.114 9.576l-3.267-3.265c-1.527-1.527-3.358-1.555-5.071.157L5.568 22.2c-1.712 1.712-1.685 3.546-.158 5.072l3.265 3.269c.571.569 1.21.484 1.649.049.436-.44.512-1.075-.059-1.64l-3.237-3.241c-.613-.612-.595-1.19.095-1.878l1.294-1.293c.687-.69 1.266-.71 1.879-.094l3.237 3.237c.567.57 1.201.494 1.639.057.438-.44.522-1.078-.046-1.648zm33.345 4.118L28.208 48.47c-2.04 2.041-4.38 2.041-6.418 0L1.53 28.21c-2.04-2.04-2.04-4.378 0-6.418L21.792 1.53c2.04-2.041 4.378-2.041 6.417 0L48.47 21.79c2.041 2.038 2.041 4.378.002 6.417zM25.846 6.893c-.616-.614-1.192-.596-1.88.095L22.672 8.28c-.687.687-.707 1.266-.091 1.878l1.478 1.48c.614.617 1.19.598 1.88-.093l1.293-1.294c.686-.686.706-1.266.093-1.878l-1.479-1.48zM19.62 16.08c.614.613.594 1.192-.094 1.878l-1.293 1.294c-.691.69-1.264.708-1.88.093l-1.48-1.481c-.613-.612-.596-1.19.092-1.878l1.293-1.294c.691-.69 1.267-.707 1.882-.093l1.48 1.48z"/><path fill="#FF6D00" d="M25.626 21.79c-2.04 2.04-2.04 4.379 0 6.418L45.887 48.47c2.04 2.041 4.379 2.041 6.42 0l20.26-20.26c2.04-2.04 2.038-4.38 0-6.419l-20.26-20.26c-2.041-2.041-4.38-2.041-6.418 0l-20.263 20.26"/><path fill="#FFFFFE" d="M36.445 24.05c-.95-.226-1.25-.318-1.25-.732 0-.57.804-.655 1.284-.655.44 0 .99.102 1.475.273.124.042.247.079.371.079.343 0 .502-.263.613-.521l.074-.18c.041-.11.08-.232.08-.36 0-.284-.18-.514-.495-.63-.752-.285-1.543-.344-2.075-.344-2.089 0-3.286.89-3.286 2.441 0 1.725 1.428 2.044 2.941 2.38l.026.006c.836.186 1.238.296 1.238.755 0 .165 0 .67-1.387.67-.555 0-1.133-.108-1.768-.332a1.204 1.204 0 00-.372-.079c-.342 0-.502.263-.611.52l-.09.21a1.03 1.03 0 00-.08.361c0 .285.18.514.492.629.627.249 1.44.375 2.414.375 2.167 0 3.361-.873 3.361-2.457 0-1.724-1.436-2.057-2.955-2.409zm16.615.346l-4.999-3.147a.63.63 0 00-.964.534v6.292a.63.63 0 00.964.534l5-3.147a.63.63 0 000-1.066zm-7.298 3.2c-.068-.318-.236-.467-.531-.467-.068 0-.207.016-.292.03-.151.02-.28.029-.382.029-.766 0-1.24-.24-1.24-1.434V22.84h1.71c.512 0 .751-.24.751-.753v-.206c0-.514-.239-.754-.752-.754h-1.71v-1.095c0-.515-.239-.754-.752-.754h-.468c-.514 0-.753.24-.753.754v1.095h-.435c-.513 0-.752.24-.752.754v.206c0 .514.239.753.752.753h.435v3.092c0 2.008.964 2.985 2.95 2.985.379 0 .734-.057 1.001-.105.37-.067.572-.287.572-.62 0-.074-.022-.195-.046-.315l-.058-.28zm19.855.28l-.06-.28c-.066-.318-.235-.467-.53-.467a2.32 2.32 0 00-.291.03c-.152.02-.28.029-.383.029-.765 0-1.24-.24-1.24-1.434V22.84h1.71c.513 0 .752-.24.752-.753v-.206c0-.514-.24-.754-.753-.754h-1.71v-1.095c0-.515-.238-.754-.752-.754h-.468c-.514 0-.753.24-.753.754v1.095h-.434c-.514 0-.753.24-.753.754v.206c0 .514.24.753.753.753h.434v3.092c0 2.008.965 2.985 2.95 2.985.38 0 .734-.057 1.002-.105.368-.067.572-.287.572-.62 0-.074-.023-.194-.046-.315zm-6.505-6.172c0 .07-.016.224-.03.3l-.03.147c-.092.427-.229.674-.662.674-.09 0-.206-.01-.34-.022a6.843 6.843 0 00-.642-.037c-.326 0-.771.037-1.08.12v5.13c0 .513-.239.753-.752.753h-.469c-.513 0-.753-.24-.753-.754v-5.797c0-.49.221-.78.695-.912a8.855 8.855 0 013.412-.267c.414.05.651.292.651.665z"/></g></svg>